<?xml version="1.0" encoding="UTF-8"?>
<svg xmlns="http://www.w3.org/2000/svg" xmlns:xlink="http://www.w3.org/1999/xlink" width="150px" height="208px" viewBox="0 0 150 208" version="1.1">
<g id="surface1">
<path style=" stroke:none;fill-rule:nonzero;fill:rgb(4.313726%,4.313726%,4.313726%);fill-opacity:1;" d="M 106.234375 157.117188 C 106.234375 154.875 105.347656 153.753906 103.09375 153.835938 C 95.773438 153.835938 88.453125 153.835938 81.210938 153.835938 C 79.039062 153.835938 78.074219 154.796875 78.152344 156.957031 C 78.234375 158.402344 78.152344 159.921875 78.152344 161.925781 C 71.316406 155.515625 63.511719 154.234375 55.222656 154.875 C 45.167969 155.597656 42.191406 161.765625 47.582031 170.019531 C 48.226562 170.980469 48.625 172.101562 49.027344 173.144531 C 50.234375 176.828125 49.429688 180.355469 47.984375 183.878906 C 46.535156 187.566406 47.339844 190.207031 50.558594 192.292969 C 53.050781 193.894531 55.707031 194.054688 58.441406 192.691406 C 65.523438 189.167969 71.957031 184.679688 78.074219 179.152344 C 78.152344 179.710938 78.152344 179.871094 78.152344 180.113281 C 78.152344 184.28125 78.234375 188.367188 78.152344 192.53125 C 78.074219 199.261719 77.914062 199.023438 84.671875 198.941406 C 88.371094 198.941406 88.773438 198.539062 88.773438 194.695312 C 88.773438 185.480469 88.855469 176.1875 88.695312 166.972656 C 88.613281 164.328125 89.820312 164.007812 91.992188 164.167969 C 93.921875 164.328125 95.933594 163.609375 95.855469 166.894531 C 95.613281 175.226562 95.773438 183.558594 95.773438 191.972656 C 95.773438 199.34375 95.773438 199.34375 103.253906 199.023438 C 105.429688 198.941406 106.3125 198.058594 106.3125 195.898438 C 106.152344 182.835938 106.152344 169.9375 106.234375 157.117188 Z M 72.761719 170.5 C 68.742188 175.066406 63.914062 178.671875 58.121094 181.316406 C 57.960938 178.910156 59.085938 177.230469 59.246094 175.226562 C 59.570312 172.34375 59.003906 169.777344 57.234375 167.453125 C 55.707031 165.453125 56.027344 164.570312 58.523438 164.570312 C 63.1875 164.488281 67.535156 165.613281 71.636719 167.855469 C 72.683594 168.335938 73.96875 169.136719 72.761719 170.5 Z M 72.761719 170.5 "/>
<path style=" stroke:none;fill-rule:nonzero;fill:rgb(4.313726%,4.313726%,4.313726%);fill-opacity:1;" d="M 38.085938 170.339844 C 36.398438 170.578125 34.789062 171.140625 33.097656 171.460938 C 26.421875 172.984375 25.777344 172.421875 26.097656 165.53125 C 26.179688 164.167969 26.582031 163.929688 27.789062 163.929688 C 30.847656 164.007812 33.902344 163.929688 36.960938 163.929688 C 42.753906 163.929688 42.914062 163.769531 42.835938 157.839844 C 42.835938 157.601562 42.835938 157.28125 42.835938 157.039062 C 42.753906 154.875 41.789062 153.675781 39.453125 153.753906 C 38.085938 153.753906 36.800781 153.753906 35.191406 153.753906 C 37.042969 146.0625 34.707031 141.335938 28.351562 139.894531 C 26.261719 139.414062 24.089844 139.652344 21.914062 139.972656 C 16.605469 140.855469 11.296875 142.21875 6.386719 138.53125 C 4.777344 137.328125 3.332031 138.292969 2.527344 140.054688 C 0.191406 145.179688 2.445312 149.027344 8.078125 149.988281 C 12.984375 150.789062 17.730469 150.070312 22.558594 149.1875 C 24.652344 148.785156 26.664062 149.988281 26.582031 151.671875 C 26.5 153.835938 24.8125 153.835938 23.285156 153.835938 C 17.972656 153.835938 12.664062 153.835938 7.355469 153.835938 C 0.433594 153.835938 0.515625 153.835938 0.59375 160.804688 C 0.59375 163.128906 1.480469 164.089844 3.8125 164.007812 C 7.355469 163.929688 10.8125 164.089844 14.351562 163.929688 C 15.960938 163.847656 16.527344 164.25 16.445312 165.933594 C 16.285156 169.296875 16.363281 172.742188 16.445312 176.1875 C 16.445312 179.953125 17.8125 181.316406 21.433594 181.875 C 24.570312 182.355469 27.46875 181.476562 30.523438 181.15625 C 31.25 181.074219 32.054688 180.355469 32.777344 181.234375 C 33.5 182.117188 32.777344 182.996094 32.375 183.71875 C 30.285156 187.484375 26.582031 188.207031 22.800781 188.605469 C 16.125 189.328125 12.339844 186.523438 10.972656 180.195312 C 10.410156 177.628906 10.25 175.066406 10.25 172.421875 C 10.25 166.894531 10.25 166.894531 4.699219 166.894531 C 4.539062 166.894531 4.296875 166.894531 4.136719 166.894531 C 2.042969 166.652344 0.996094 167.695312 0.675781 169.699219 C -0.210938 174.425781 -0.289062 179.152344 0.835938 183.800781 C 1.640625 187.402344 3.089844 190.769531 5.746094 193.492188 C 10.570312 198.460938 16.765625 199.421875 23.203125 198.941406 C 40.179688 197.660156 44.605469 187.003906 42.59375 173.382812 C 42.191406 171.058594 40.5 169.9375 38.085938 170.339844 Z M 38.085938 170.339844 "/>
<path style=" stroke:none;fill-rule:nonzero;fill:rgb(4.313726%,4.313726%,4.313726%);fill-opacity:1;" d="M 150 157.117188 C 150 154.875 149.035156 153.753906 146.78125 153.753906 C 135.355469 153.753906 123.851562 153.753906 112.425781 153.753906 C 110.496094 153.753906 109.371094 154.636719 109.449219 156.71875 C 109.449219 159.523438 109.371094 162.246094 109.449219 165.050781 C 109.613281 170.660156 110.65625 171.78125 116.207031 172.664062 C 117.738281 172.902344 119.910156 172.824219 120.152344 174.824219 C 120.394531 176.910156 118.21875 177.230469 116.851562 177.710938 C 107.679688 180.753906 109.773438 181.875 109.371094 188.765625 C 109.371094 189.007812 109.371094 189.328125 109.371094 189.566406 C 109.691406 192.210938 109.933594 195.257812 112.910156 195.898438 C 116.046875 196.617188 119.589844 197.578125 122.484375 194.695312 C 126.347656 190.929688 132.21875 191.410156 135.4375 195.738281 C 135.839844 196.21875 136.082031 197.019531 136.5625 197.257812 C 139.703125 198.460938 142.839844 199.582031 146.136719 197.980469 C 149.195312 196.457031 149.917969 193.8125 149.917969 190.847656 C 149.917969 185.402344 149.917969 179.871094 149.917969 174.425781 C 150 168.65625 150 162.886719 150 157.117188 Z M 137.53125 187.082031 C 133.265625 186.121094 129 186.042969 124.65625 186.042969 C 123.691406 186.042969 122.402344 186.28125 122.164062 185.082031 C 121.839844 183.800781 123.046875 183.238281 124.011719 182.835938 C 125.703125 182.117188 127.390625 181.234375 128.839844 180.035156 C 133.507812 176.105469 132.542969 170.179688 126.828125 167.933594 C 125.460938 167.453125 124.09375 166.972656 122.886719 166.414062 C 122.164062 166.09375 121.519531 165.371094 121.921875 164.410156 C 122.242188 163.609375 123.046875 164.007812 123.609375 164.007812 C 125.78125 163.929688 127.957031 164.007812 130.046875 164.007812 C 131.898438 164.007812 133.828125 164.089844 135.679688 164.007812 C 138.011719 163.847656 138.976562 164.972656 139.058594 167.132812 C 139.136719 170.660156 139.21875 174.105469 139.300781 177.628906 C 139.378906 180.113281 139.539062 182.597656 139.703125 185.082031 C 139.78125 186.683594 139.21875 187.484375 137.53125 187.082031 Z M 137.53125 187.082031 "/>
<path style=" stroke:none;fill-rule:nonzero;fill:rgb(4.313726%,4.313726%,4.313726%);fill-opacity:1;" d="M 128.679688 193.894531 C 124.65625 193.894531 121.679688 196.859375 121.679688 200.785156 C 121.679688 204.710938 124.65625 207.675781 128.679688 207.675781 C 132.703125 207.675781 135.519531 204.710938 135.519531 200.625 C 135.4375 196.777344 132.542969 193.894531 128.679688 193.894531 Z M 128.679688 193.894531 "/>
<path style=" stroke:none;fill-rule:nonzero;fill:rgb(98.431373%,83.529413%,0.392157%);fill-opacity:1;" d="M 44.441406 19.875 C 44.441406 9.078125 35.652344 0.324219 24.8125 0.324219 C 13.96875 0.324219 5.179688 9.078125 5.179688 19.875 C 5.179688 30.671875 13.96875 39.421875 24.8125 39.421875 C 35.652344 39.421875 44.441406 30.671875 44.441406 19.875 Z M 44.441406 19.875 "/>
<path style=" stroke:none;fill-rule:nonzero;fill:rgb(5.098039%,33.725491%,63.921571%);fill-opacity:1;" d="M 144.289062 19.875 C 144.289062 9.078125 135.5 0.324219 124.65625 0.324219 C 113.816406 0.324219 105.027344 9.078125 105.027344 19.875 C 105.027344 30.671875 113.816406 39.421875 124.65625 39.421875 C 135.5 39.421875 144.289062 30.671875 144.289062 19.875 Z M 144.289062 19.875 "/>
<path style=" stroke:none;fill-rule:nonzero;fill:rgb(5.098039%,33.725491%,63.921571%);fill-opacity:1;" d="M 57.878906 114.09375 C 57.316406 119.863281 59.648438 125.152344 63.671875 128.675781 C 66.648438 131.320312 70.671875 132.921875 75.015625 133.003906 C 85.234375 133.164062 95.691406 131.960938 105.589844 128.597656 C 130.851562 120.265625 144.691406 98.710938 144.527344 72.59375 C 144.527344 70.832031 144.527344 67.386719 144.527344 63.859375 C 144.527344 61.296875 143.5625 58.894531 142.035156 57.050781 C 140.105469 54.726562 137.128906 53.285156 133.910156 53.285156 C 128.761719 53.285156 123.53125 53.285156 118.382812 53.285156 C 115.003906 53.285156 112.023438 54.808594 110.09375 57.210938 C 108.566406 59.054688 107.679688 61.375 107.679688 63.941406 L 107.679688 67.386719 C 107.679688 68.585938 107.679688 71.472656 107.679688 72.511719 C 107.679688 76.917969 106.714844 82.046875 104.625 85.574219 C 102.050781 90.058594 98.429688 92.785156 93.28125 94.867188 C 87.164062 97.269531 80.726562 98.3125 74.132812 98.710938 C 70.109375 98.953125 66.488281 100.554688 63.589844 103.117188 C 60.375 105.683594 58.28125 109.609375 57.878906 114.09375 Z M 57.878906 114.09375 "/>
<path style=" stroke:none;fill-rule:nonzero;fill:rgb(98.431373%,83.529413%,0.392157%);fill-opacity:1;" d="M 91.671875 114.09375 C 92.234375 119.863281 89.898438 125.152344 85.878906 128.675781 C 82.902344 131.320312 78.878906 132.921875 74.535156 133.003906 C 64.316406 133.164062 53.855469 131.960938 43.960938 128.597656 C 18.699219 120.265625 4.859375 98.710938 5.019531 72.59375 C 5.019531 70.832031 5.019531 67.386719 5.019531 63.859375 C 5.019531 61.296875 5.984375 58.894531 7.515625 57.050781 C 9.445312 54.726562 12.421875 53.285156 15.640625 53.285156 C 20.789062 53.285156 26.019531 53.285156 31.167969 53.285156 C 34.546875 53.285156 37.523438 54.808594 39.453125 57.210938 C 40.984375 59.054688 41.867188 61.375 41.867188 63.941406 L 41.867188 67.386719 C 41.867188 68.585938 41.867188 71.472656 41.867188 72.511719 C 41.867188 76.917969 42.835938 82.046875 44.925781 85.574219 C 47.5 90.058594 51.121094 92.785156 56.269531 94.867188 C 62.382812 97.269531 68.820312 98.3125 75.417969 98.710938 C 79.441406 98.953125 83.0625 100.554688 85.957031 103.117188 C 89.175781 105.683594 91.269531 109.609375 91.671875 114.09375 Z M 91.671875 114.09375 "/>
</g>
</svg>
